<?xml version="1.0" encoding="UTF-8"?>
<svg id="Layer_1" data-name="Layer 1" xmlns="http://www.w3.org/2000/svg" viewBox="0 0 113.39 3.24">
  <defs>
    <style>
      .cls-1 {
        fill: #3b3b3b;
      }
    </style>
  </defs>
  <path class="cls-1" d="m1.73,2.42s-.04,0-.06,0c-.21-.02-.39-.12-.52-.28-.13-.16-.19-.36-.17-.57.06-.6.63-1.05,1.24-.99h107.77c.59-.06,1.06.36,1.13.99.02.21-.04.41-.17.57-.13.16-.32.26-.52.28-.31.03-.6-.19-.63-.51-.01-.13.08-.24.21-.25.13-.01.24.08.25.21,0,.06.06.1.12.1.08,0,.16-.05.21-.12.05-.07.08-.15.07-.23-.04-.37-.3-.61-.64-.58h-.02s-107.81,0-107.81,0h-.01c-.36-.04-.71.23-.74.58,0,.08.02.17.07.23.05.07.13.11.21.12.06,0,.11-.04.12-.1.01-.13.13-.22.25-.21.13.01.22.13.21.25-.03.29-.28.51-.57.51Z"/>
  <path class="cls-1" d="m108.35,2.7H3.75c-.13,0-.23-.1-.23-.23s.1-.23.23-.23h104.6c.13,0,.23.1.23.23s-.1.23-.23.23Z"/>
</svg>